<?xml version="1.0" encoding="UTF-8"?><svg id="a" xmlns="http://www.w3.org/2000/svg" viewBox="0 0 250.81 202.65"><defs><style>.b,.c{fill:#3eaf6e;}.b,.c,.d{stroke:#3eaf6e;stroke-linecap:round;stroke-miterlimit:10;}.b,.d{stroke-width:20px;}.c{stroke-width:12px;}.d{fill:none;}</style></defs><path class="d" d="M10,66.19V24.59c.79-1.93,2.61-5.55,6.62-8.67,6.31-4.91,13.6-5.11,15.68-5.11,92.87-.55,160.68-.54,178.65-.8,3.74-.05,13.48-.24,20.98,5.49,5.26,4.03,7.42,9.45,8.41,13.03l.49,35.89"/><path class="d" d="M59.7,38.09c-.11,42.16-.23,84.32-.34,126.48,.1,5.77,1.21,14.02,6.81,20.43,8.26,9.46,20,7.72,59.23,7.15,40.58-.59,53.77,.9,60.94-9.19,4.15-5.84,4.43-12.95,3.89-18.38,.41-42.16,.81-84.32,1.22-126.48"/><circle class="b" cx="75.75" cy="176.82" r="12.09"/><circle class="b" cx="175.24" cy="176.62" r="12.09"/><ellipse class="c" cx="125.23" cy="106.87" rx="28.43" ry="23.32"/></svg>